<?xml version="1.0" encoding="UTF-8" standalone="no"?>
<svg
   viewBox="0 0 236.67754 236.67722"
   version="1.1"
   id="svg1193"
   width="236.67754"
   height="236.67722"
   xmlns="http://www.w3.org/2000/svg"
   xmlns:svg="http://www.w3.org/2000/svg">
  <defs
     id="defs1197" />
  <g
     id="g3019"
     transform="translate(-217.07795,-324.33554)">
    <path
       style="mix-blend-mode:normal;fill:#ffa300;fill-opacity:1;fill-rule:nonzero;stroke:none;stroke-width:0.606403;stroke-opacity:1"
       d="m 335.76357,533.08145 c -49.68743,-0.004 -90.41562,-39.77257 -90.75433,-89.45884 l -27.43904,-0.18569 c 0.34251,65.03339 53.15907,117.57241 118.19337,117.57226 z"
       id="path2100" />
    <path
       style="mix-blend-mode:normal;fill:#ffa300;fill-opacity:1;fill-rule:nonzero;stroke:none;stroke-width:0.606403;stroke-opacity:1"
       d="m 335.44564,352.26647 a 90.40731,90.40731 0 0 1 90.39844,89.79102 l 27.79493,-0.1465 A 118.19474,118.19474 0 0 0 335.44564,324.33874 Z"
       id="path2098" />
    <path
       id="path1851"
       style="fill:#4444f7;fill-opacity:1;stroke:none;stroke-width:1.81535;stroke-linecap:round;stroke-linejoin:round;stroke-opacity:1"
       d="m 425.82422,443.30469 c -0.004,49.68743 -40.10475,90.05972 -89.79102,90.39843 l -0.26963,27.30606 c 65.03339,-0.34251 117.98852,-52.6702 117.98838,-117.70449 z" />
    <path
       id="path1851-8"
       style="fill:#4444f7;fill-opacity:1;stroke:none;stroke-width:1.81535;stroke-linecap:round;stroke-linejoin:round;stroke-opacity:1"
       d="m 245.00924,443.62261 c 0.004,-49.68743 39.50336,-91.03738 89.18963,-91.37609 l 0.45489,-26.81727 c -65.03339,0.34251 -117.57239,53.15907 -117.57225,118.19336 z" />
    <path
       id="path1191-3-4"
       style="mix-blend-mode:normal;fill:#4444f7;fill-opacity:1;fill-rule:nonzero;stroke:none;stroke-opacity:1"
       d="m 220.07133,194.31463 c -6.38064,68.15146 -49.5991,113.51411 -109.7231,113.51411 -60.124001,0 -108.8448727,-50.79601 -108.8448727,-110.92001 0,-0.687 -0.013128,0.68401 -1.277e-4,1e-5 H 47.558229 c -0.022,0.683 -1.18e-4,-0.68801 -1.18e-4,-1e-5 0,34.696 28.094118,64.87901 62.790119,64.87901 34.696,0 58.86981,-30.54663 63.68395,-67.10453 11.64402,-81.91048 61.76492,-107.78888 108.91207,-109.21947 60.124,0 108.845,50.796 108.845,110.92 0,0.687 0.013,-0.684 0,0 h -46.055 c 0.022,-0.683 2.4e-4,0.68872 2.4e-4,7.2e-4 0,-34.696 -28.09424,-64.87972 -62.79024,-64.87972 -36.18139,7.65054 -53.73487,16.87195 -62.87292,62.80989 z"
       transform="matrix(0.60640276,0,0,0.60640276,216.16987,324.21661)" />
    <path
       style="mix-blend-mode:normal;fill:#ffa300;fill-opacity:1;fill-rule:nonzero;stroke:none;stroke-width:0.606403;stroke-opacity:1"
       d="m 337.01871,456.87896 c -41.32723,-3.86924 -68.83527,-30.07703 -68.83527,-66.53639 0,-36.45936 30.80284,-66.00393 67.2622,-66.00393 0.4166,0 -0.41478,-0.007 0,0 v 27.92788 c -0.41418,-0.0133 0.41721,0 0,0 -21.03975,0 -39.34281,17.03629 -39.34281,38.07604 0,21.03975 18.52356,35.69882 40.69237,38.61812 49.67075,7.06097 65.36348,37.45442 66.23099,66.04458 0,36.45936 -30.80283,66.00393 -67.26219,66.00393 -0.4166,0 0.41478,0.008 0,0 V 533.0813 c 0.41417,0.0133 -0.4172,0 0,0 21.03975,0 39.3428,-17.03629 39.3428,-38.07604 -4.63931,-21.94049 -10.23119,-32.58497 -38.08809,-38.12631 z"
       id="path1191-3-4-8" />
  </g>
</svg>
