<?xml version="1.0" encoding="UTF-8" standalone="no"?>
<svg
   viewBox="0 0 1367.945 268.4382"
   version="1.1"
   id="svg1193"
   sodipodi:docname="ss-logo-work.svg"
   inkscape:export-filename="s.png"
   inkscape:export-xdpi="96"
   inkscape:export-ydpi="96"
   inkscape:version="1.2.2 (1:1.2.2+202305151915+b0a8486541)"
   width="1367.9449"
   height="268.4382"
   xmlns:inkscape="http://www.inkscape.org/namespaces/inkscape"
   xmlns:sodipodi="http://sodipodi.sourceforge.net/DTD/sodipodi-0.dtd"
   xmlns="http://www.w3.org/2000/svg"
   xmlns:svg="http://www.w3.org/2000/svg">
  <defs
     id="defs1197" />
  <sodipodi:namedview
     id="namedview1195"
     pagecolor="#ffffff"
     bordercolor="#666666"
     borderopacity="1.0"
     inkscape:showpageshadow="2"
     inkscape:pageopacity="0.0"
     inkscape:pagecheckerboard="0"
     inkscape:deskcolor="#d1d1d1"
     showgrid="false"
     inkscape:zoom="0.25"
     inkscape:cx="1056"
     inkscape:cy="672"
     inkscape:window-width="1366"
     inkscape:window-height="703"
     inkscape:window-x="0"
     inkscape:window-y="0"
     inkscape:window-maximized="1"
     inkscape:current-layer="svg1193" />
  <g
     id="g1"
     transform="translate(-212.05143,-319.97902)">
    <path
       id="path1851"
       style="display:inline;fill:#0b0b0b;fill-opacity:1;stroke:#0b0b0b;stroke-width:10.7;stroke-linecap:round;stroke-linejoin:round;stroke-dasharray:none;stroke-opacity:1"
       d="m 419.4534,475.85559 c -17.89899,46.35156 -69.84899,69.57198 -116.32291,51.9931 l -10.086,25.3765 c 60.79248,23.10269 129.04006,-6.64124 152.46246,-67.31124 z"
       sodipodi:nodetypes="ccccc"
       inkscape:label="black-t"
       inkscape:export-filename="../../logo/ss-logo-red-black.svg"
       inkscape:export-xdpi="96"
       inkscape:export-ydpi="96" />
    <path
       id="path1851-8"
       style="display:inline;fill:#0b0b0b;fill-opacity:1;stroke:#0b0b0b;stroke-width:10.7;stroke-linecap:round;stroke-linejoin:round;stroke-dasharray:none;stroke-opacity:1"
       d="m 250.6581,411.03043 c 17.899,-46.35154 69.64009,-70.70062 116.11398,-53.12175 l 10.08279,-24.85377 c -60.79246,-23.10271 -128.82791,7.24716 -152.25033,67.91716 z"
       sodipodi:nodetypes="ccccc"
       inkscape:label="black-b" />
    <path
       style="display:inline;mix-blend-mode:normal;fill:#d8160f;fill-opacity:1;fill-rule:nonzero;stroke:#d8160f;stroke-width:10.7;stroke-dasharray:none;stroke-opacity:1"
       d="m 303.10286,527.17165 c -46.35155,-17.899 -70.02363,-69.66731 -52.44476,-116.14122 l -25.53078,-10.05558 c -23.1027,60.79247 7.24716,128.82794 67.91717,152.25034 z"
       id="path2100"
       sodipodi:nodetypes="ccccc"
       inkscape:label="red-b" />
    <path
       style="mix-blend-mode:normal;fill:#d8160f;fill-opacity:1;fill-rule:nonzero;stroke:#d8160f;stroke-width:10.7;stroke-dasharray:none;stroke-opacity:1"
       d="m 367.92801,358.37633 a 90.40731,90.40731 0 0 1 51.99311,116.3229 l 25.98243,9.87388 A 118.19474,118.19474 0 0 0 377.98637,332.32278 Z"
       id="path2098"
       inkscape:label="red-t" />
    <path
       style="display:inline;mix-blend-mode:normal;fill:#d8160f;fill-opacity:1;fill-rule:nonzero;stroke:#d8160f;stroke-width:10.7;stroke-dasharray:none;stroke-opacity:1"
       d="m 331.71861,456.53501 c -37.16029,-18.49387 -53.38342,-52.8501 -40.25232,-86.86274 13.13108,-34.01264 52.50748,-50.48068 86.52012,-37.34959 0.38864,0.15005 -0.38442,-0.15591 0,0 l -10.05842,26.05369 c -0.38159,-0.16158 0.38922,0.15026 0,0 -19.62781,-7.5776 -42.83832,1.72343 -50.41593,21.35124 -7.57761,19.62782 4.42334,39.97453 24.053,50.68217 43.79438,24.47638 47.48759,58.48201 37.99994,85.46598 -13.13109,34.01264 -52.50747,50.48069 -86.52011,37.34959 -0.38865,-0.15003 0.38407,0.15685 0,0 l 10.05843,-26.05369 c 0.38157,0.16157 -0.38921,-0.15026 0,0 19.6278,7.5776 42.8383,-1.72344 50.41591,-21.35125 3.57404,-22.13899 2.1911,-34.08309 -21.80061,-49.28541 z"
       id="path1191-3-4-8"
       sodipodi:nodetypes="sssccssccsccscss"
       inkscape:label="red-c" />
    <path
       id="path1191-3-4"
       style="mix-blend-mode:normal;fill:#0b0b0b;fill-opacity:1;fill-rule:nonzero;stroke:#0b0b0b;stroke-width:10.7;stroke-dasharray:none;stroke-opacity:1"
       d="m 348.81678,447.23983 c -18.49387,37.1603 -52.85011,53.38341 -86.86274,40.25232 -34.01263,-13.13109 -50.48058,-52.50744 -37.3495,-86.52008 0.15005,-0.38864 -0.15684,0.38407 -6e-5,-3e-5 l 26.05369,10.05842 c -0.16158,0.38159 0.15019,-0.38923 -7e-5,-3e-5 -7.57761,19.62781 1.72349,42.83835 21.3513,50.41595 19.62781,7.57761 39.97453,-4.42324 50.68215,-24.053 24.47638,-43.79438 58.48203,-47.48759 85.466,-37.99993 34.01263,13.13108 50.48065,52.50746 37.34957,86.5201 -0.15004,0.38864 0.15684,-0.38407 0,0 l -26.0537,-10.05842 c 0.16157,-0.38159 -0.15027,0.38966 -2e-5,4.6e-4 7.57761,-19.6278 -1.7234,-42.83877 -21.35121,-50.41637 -22.13899,-3.57405 -34.08308,-2.19111 -49.28541,21.80061 z"
       sodipodi:nodetypes="cssccssccsccscc"
       inkscape:export-filename="ss-logo-black.svg"
       inkscape:export-xdpi="96"
       inkscape:export-ydpi="96"
       inkscape:label="black-c" />
  </g>
  <g
     aria-label="sviy.site"
     id="text295"
     style="font-weight:bold;font-size:303.668px;line-height:1.25;font-family:Gayathri;-inkscape-font-specification:'Gayathri Bold';display:inline;fill:#0b0b0b;fill-opacity:1;stroke-width:4.74482"
     transform="translate(-218.05143,-319.97902)">
    <path
       d="m 582.17206,532.66567 c 26.98612,0 65.686,-13.49307 65.686,-46.26193 0,-14.23443 -6.52412,-23.87233 -18.23788,-31.2861 -13.64133,-8.59998 -28.02404,-10.23101 -43.74124,-12.60341 -7.71032,-1.18621 -15.71719,-2.96551 -22.98268,-5.78274 -5.93102,-2.37241 -14.23444,-6.82067 -14.23444,-14.23444 0,-17.19995 18.83098,-25.20682 33.65852,-25.20682 15.56891,0 27.87577,8.74825 31.58265,23.87234 1.33448,5.33792 10.23101,7.11722 14.97582,7.11722 4.59653,-0.14828 14.97581,-2.22413 14.97581,-8.00687 0,-0.88965 -0.14827,-1.63103 -0.44482,-2.52068 -7.11722,-26.24475 -35.28955,-36.92057 -60.94119,-36.92057 -25.05854,0 -63.75842,11.56548 -63.75842,41.96193 0,13.64134 7.41377,24.31716 18.53443,31.73093 13.64133,9.0448 28.9137,10.37928 44.77916,12.60341 7.56205,1.03793 15.86547,2.66896 22.98269,5.78274 6.07929,2.66896 12.89996,6.96895 12.89996,14.38272 0,18.53442 -19.57235,28.9137 -35.88265,28.9137 -18.68269,0 -32.17576,-10.52756 -37.06884,-28.76543 -1.33448,-5.18964 -10.23101,-6.96894 -14.97582,-6.96894 -4.59653,0 -14.97581,2.22413 -14.97581,8.15514 0,0.88966 0.29655,1.77931 0.5931,2.66896 8.74825,29.35853 37.3654,41.36884 66.57565,41.36884 z"
       id="path2990"
       style="fill:#0b0b0b;fill-opacity:1" />
    <path
       d="m 735.19226,532.66567 c 4.44826,0 13.78961,-1.77931 15.71719,-6.22757 l 60.05153,-138.48922 c 0.14828,-0.5931 0.29655,-1.03792 0.29655,-1.48275 0,-3.55861 -5.93101,-5.48619 -11.86203,-5.48619 -5.04136,0 -10.08273,1.33448 -11.41721,4.44826 L 739.04742,498.1175 689.96826,387.05923 c -1.7793,-4.15171 -8.30342,-6.07929 -14.97581,-6.07929 -8.00687,0 -16.16202,2.66896 -16.16202,7.56205 0,0.5931 0.14827,1.1862 0.44483,1.92758 l 60.05153,135.96853 c 2.22413,5.04136 11.12065,6.22757 15.86547,6.22757 z"
       id="path2992"
       style="fill:#0b0b0b;fill-opacity:1" />
    <path
       d="m 841.20918,532.66567 c 4.74481,0 14.97582,-2.07586 14.97582,-8.30343 V 389.13509 c 0,-6.22757 -10.23101,-8.30342 -14.97582,-8.30342 -4.89309,0 -15.12409,2.07585 -15.12409,8.30342 v 135.22715 c 0,6.22757 10.231,8.30343 15.12409,8.30343 z"
       id="path3011"
       style="fill:#0b0b0b;fill-opacity:1" />
    <path
       d="m 841.20918,367.78343 c 7.8586,0 15.12409,-6.07929 15.12409,-15.12409 0,-9.19307 -7.26549,-15.27236 -15.12409,-15.27236 -8.00687,0 -15.27236,6.07929 -15.27236,15.27236 0,9.0448 7.26549,15.12409 15.27236,15.12409 z"
       id="path2994"
       style="fill:#0b0b0b;fill-opacity:1" />
    <path
       d="M 1024.6258,524.21397 V 388.39371 c 0,-6.22757 -10.231,-8.30342 -15.1241,-8.30342 -4.7448,0 -14.97577,2.07585 -14.97577,8.30342 v 77.25148 c 0,23.42751 -14.67927,49.82053 -41.07229,49.82053 -27.43094,0 -41.07228,-26.24474 -41.07228,-50.26536 v -76.80665 c 0,-6.22757 -10.231,-8.30342 -14.97581,-8.30342 -4.89309,0 -15.12409,2.07585 -15.12409,8.30342 v 76.80665 c 0,40.92401 30.24818,66.72393 71.17218,66.72393 14.53099,0 30.24818,-4.44826 41.07229,-17.34822 v 8.00687 c 0,29.80335 -12.89996,49.22743 -44.48262,49.22743 -14.23444,0 -30.24818,-4.29999 -38.69988,-16.60685 -2.66895,-3.85516 -8.74824,-5.18963 -14.08616,-5.18963 -4.89309,0 -14.97581,2.07585 -14.97581,8.15514 0,0.88965 0.29655,1.92758 1.03793,2.96551 13.93788,20.16545 43.29641,27.28267 67.02047,27.28267 41.07228,0 74.28594,-19.42407 74.28594,-64.20324 z"
       id="path2996"
       style="fill:#0b0b0b;fill-opacity:1" />
    <path
       d="m 1072.2222,493.52096 c -9.4896,0 -17.9413,7.11722 -17.9413,17.94132 0,10.52756 8.4517,17.64478 17.9413,17.64478 9.1931,0 17.6448,-7.11722 17.6448,-17.64478 0,-10.8241 -8.4517,-17.94132 -17.6448,-17.94132 z"
       id="path2998"
       style="fill:#0b0b0b;fill-opacity:1" />
    <path
       d="m 1179.277,532.66567 c 26.9862,0 65.686,-13.49307 65.686,-46.26193 0,-14.23443 -6.5241,-23.87233 -18.2378,-31.2861 -13.6414,-8.59998 -28.0241,-10.23101 -43.7413,-12.60341 -7.7103,-1.18621 -15.7172,-2.96551 -22.9827,-5.78274 -5.931,-2.37241 -14.2344,-6.82067 -14.2344,-14.23444 0,-17.19995 18.831,-25.20682 33.6585,-25.20682 15.5689,0 27.8758,8.74825 31.5827,23.87234 1.3345,5.33792 10.231,7.11722 14.9758,7.11722 4.5965,-0.14828 14.9758,-2.22413 14.9758,-8.00687 0,-0.88965 -0.1483,-1.63103 -0.4448,-2.52068 -7.1172,-26.24475 -35.2896,-36.92057 -60.9412,-36.92057 -25.0585,0 -63.7584,11.56548 -63.7584,41.96193 0,13.64134 7.4137,24.31716 18.5344,31.73093 13.6413,9.0448 28.9137,10.37928 44.7792,12.60341 7.562,1.03793 15.8654,2.66896 22.9827,5.78274 6.0792,2.66896 12.8999,6.96895 12.8999,14.38272 0,18.53442 -19.5723,28.9137 -35.8826,28.9137 -18.6827,0 -32.1758,-10.52756 -37.0689,-28.76543 -1.3345,-5.18964 -10.231,-6.96894 -14.9758,-6.96894 -4.5965,0 -14.9758,2.22413 -14.9758,8.15514 0,0.88966 0.2965,1.77931 0.5931,2.66896 8.7482,29.35853 37.3654,41.36884 66.5756,41.36884 z"
       id="path3000"
       style="fill:#0b0b0b;fill-opacity:1" />
    <path
       d="m 1278.7699,367.78343 c 7.8585,0 15.124,-6.07929 15.124,-15.12409 0,-9.19307 -7.2655,-15.27236 -15.124,-15.27236 -8.0069,0 -15.2724,6.07929 -15.2724,15.27236 0,9.0448 7.2655,15.12409 15.2724,15.12409 z m 0,164.88224 c 4.7448,0 14.9758,-2.07586 14.9758,-8.30343 V 389.13509 c 0,-6.22757 -10.231,-8.30342 -14.9758,-8.30342 -4.8931,0 -15.1241,2.07585 -15.1241,8.30342 v 135.22715 c 0,6.22757 10.231,8.30343 15.1241,8.30343 z"
       id="path3002"
       style="fill:#0b0b0b;fill-opacity:1" />
    <path
       d="m 1390.1247,532.66567 c 6.2275,0 12.6034,-0.59311 18.8309,-1.63103 4.1517,-0.74138 12.4552,-3.26206 12.4552,-8.00688 0,-6.52411 -10.6759,-8.59997 -15.5689,-8.59997 -5.1897,0 -10.0828,1.63103 -15.569,1.63103 -15.1241,0 -19.8689,-11.12065 -19.8689,-24.31716 v -94.30315 h 24.9103 c 4.7448,0 15.1241,-2.07586 15.1241,-8.30342 0,-6.22757 -10.5276,-8.30342 -15.1241,-8.30342 h -24.9103 v -48.18951 c 0,-6.22756 -10.3792,-8.30342 -15.1241,-8.30342 -4.7448,0 -15.124,2.07586 -15.124,8.30342 v 48.18951 h -16.6069 c -4.7448,0 -14.9758,2.07585 -14.9758,8.30342 0,6.22756 10.231,8.30342 14.9758,8.30342 h 16.6069 v 94.30315 c 0,29.35852 22.6861,40.77573 49.9688,40.92401 z"
       id="path3004"
       style="fill:#0b0b0b;fill-opacity:1" />
    <path
       d="m 1504.8898,532.66567 c 18.9793,0 38.9964,-4.74482 54.8619,-15.12409 8.6,-5.63447 16.9034,-13.64134 20.9068,-23.13097 1.1862,-2.81723 2.5207,-6.96894 2.5207,-10.08272 0,-6.07929 -10.5275,-8.15515 -15.2724,-8.15515 -4.5965,0 -14.0861,2.07586 -14.6792,7.71032 -1.0379,9.78618 -8.6,17.94132 -16.6069,23.13096 -9.3413,5.93102 -20.462,9.19308 -31.5826,9.19308 -31.5827,0 -49.8205,-28.3206 -50.1171,-57.53085 h 116.0996 c 6.3759,0 14.9758,-1.77931 14.9758,-9.48963 0,-45.37227 -36.3274,-68.35495 -79.7721,-68.35495 -45.6688,0 -81.2549,29.65507 -81.2549,76.80665 0,46.55847 34.993,75.02735 79.9204,75.02735 z M 1555.6,442.21768 h -98.8997 c 5.3379,-24.46544 23.131,-44.92745 49.524,-44.92745 28.024,0 46.5585,18.0896 49.3757,44.92745 z"
       id="path3006"
       style="fill:#0b0b0b;fill-opacity:1" />
  </g>
</svg>
