<?xml version="1.0" encoding="UTF-8" standalone="no"?>
<svg
   viewBox="0 0 1362.9186 264.0817"
   version="1.1"
   id="svg1193"
   width="1362.9186"
   height="264.0817"
   xmlns="http://www.w3.org/2000/svg"
   xmlns:svg="http://www.w3.org/2000/svg">
  <defs
     id="defs1197" />
  <g
     id="g3019"
     transform="translate(-217.07795,-324.33554)">
    <path
       style="mix-blend-mode:normal;fill:#ffa300;fill-opacity:1;fill-rule:nonzero;stroke:none;stroke-width:0.606403;stroke-opacity:1"
       d="m 335.76357,533.08145 c -49.68743,-0.004 -90.41562,-39.77257 -90.75433,-89.45884 l -27.43904,-0.18569 c 0.34251,65.03339 53.15907,117.57241 118.19337,117.57226 z"
       id="path2100" />
    <path
       style="mix-blend-mode:normal;fill:#ffa300;fill-opacity:1;fill-rule:nonzero;stroke:none;stroke-width:0.606403;stroke-opacity:1"
       d="m 335.44564,352.26647 a 90.40731,90.40731 0 0 1 90.39844,89.79102 l 27.79493,-0.1465 A 118.19474,118.19474 0 0 0 335.44564,324.33874 Z"
       id="path2098" />
    <path
       id="path1851"
       style="fill:#4444f7;fill-opacity:1;stroke:none;stroke-width:1.81535;stroke-linecap:round;stroke-linejoin:round;stroke-opacity:1"
       d="m 425.82422,443.30469 c -0.004,49.68743 -40.10475,90.05972 -89.79102,90.39843 l -0.26963,27.30606 c 65.03339,-0.34251 117.98852,-52.6702 117.98838,-117.70449 z" />
    <path
       id="path1851-8"
       style="fill:#4444f7;fill-opacity:1;stroke:none;stroke-width:1.81535;stroke-linecap:round;stroke-linejoin:round;stroke-opacity:1"
       d="m 245.00924,443.62261 c 0.004,-49.68743 39.50336,-91.03738 89.18963,-91.37609 l 0.45489,-26.81727 c -65.03339,0.34251 -117.57239,53.15907 -117.57225,118.19336 z" />
    <path
       id="path1191-3-4"
       style="mix-blend-mode:normal;fill:#4444f7;fill-opacity:1;fill-rule:nonzero;stroke:none;stroke-opacity:1"
       d="m 220.07133,194.31463 c -6.38064,68.15146 -49.5991,113.51411 -109.7231,113.51411 -60.124001,0 -108.8448727,-50.79601 -108.8448727,-110.92001 0,-0.687 -0.013128,0.68401 -1.277e-4,1e-5 H 47.558229 c -0.022,0.683 -1.18e-4,-0.68801 -1.18e-4,-1e-5 0,34.696 28.094118,64.87901 62.790119,64.87901 34.696,0 58.86981,-30.54663 63.68395,-67.10453 11.64402,-81.91048 61.76492,-107.78888 108.91207,-109.21947 60.124,0 108.845,50.796 108.845,110.92 0,0.687 0.013,-0.684 0,0 h -46.055 c 0.022,-0.683 2.4e-4,0.68872 2.4e-4,7.2e-4 0,-34.696 -28.09424,-64.87972 -62.79024,-64.87972 -36.18139,7.65054 -53.73487,16.87195 -62.87292,62.80989 z"
       transform="matrix(0.60640276,0,0,0.60640276,216.16987,324.21661)" />
    <path
       style="mix-blend-mode:normal;fill:#ffa300;fill-opacity:1;fill-rule:nonzero;stroke:none;stroke-width:0.606403;stroke-opacity:1"
       d="m 337.01871,456.87896 c -41.32723,-3.86924 -68.83527,-30.07703 -68.83527,-66.53639 0,-36.45936 30.80284,-66.00393 67.2622,-66.00393 0.4166,0 -0.41478,-0.007 0,0 v 27.92788 c -0.41418,-0.0133 0.41721,0 0,0 -21.03975,0 -39.34281,17.03629 -39.34281,38.07604 0,21.03975 18.52356,35.69882 40.69237,38.61812 49.67075,7.06097 65.36348,37.45442 66.23099,66.04458 0,36.45936 -30.80283,66.00393 -67.26219,66.00393 -0.4166,0 0.41478,0.008 0,0 V 533.0813 c 0.41417,0.0133 -0.4172,0 0,0 21.03975,0 39.3428,-17.03629 39.3428,-38.07604 -4.63931,-21.94049 -10.23119,-32.58497 -38.08809,-38.12631 z"
       id="path1191-3-4-8" />
  </g>
  <g
     aria-label="sviy.site"
     id="text295"
     style="font-weight:bold;font-size:303.668px;line-height:1.25;font-family:Gayathri;-inkscape-font-specification:'Gayathri Bold';fill:#4444f7;fill-opacity:0.998452;stroke-width:4.74482"
     transform="translate(-223.07795,-324.33554)">
    <path
       d="m 582.17206,532.66567 c 26.98612,0 65.686,-13.49307 65.686,-46.26193 0,-14.23443 -6.52412,-23.87233 -18.23788,-31.2861 -13.64133,-8.59998 -28.02404,-10.23101 -43.74124,-12.60341 -7.71032,-1.18621 -15.71719,-2.96551 -22.98268,-5.78274 -5.93102,-2.37241 -14.23444,-6.82067 -14.23444,-14.23444 0,-17.19995 18.83098,-25.20682 33.65852,-25.20682 15.56891,0 27.87577,8.74825 31.58265,23.87234 1.33448,5.33792 10.23101,7.11722 14.97582,7.11722 4.59653,-0.14828 14.97581,-2.22413 14.97581,-8.00687 0,-0.88965 -0.14827,-1.63103 -0.44482,-2.52068 -7.11722,-26.24475 -35.28955,-36.92057 -60.94119,-36.92057 -25.05854,0 -63.75842,11.56548 -63.75842,41.96193 0,13.64134 7.41377,24.31716 18.53443,31.73093 13.64133,9.0448 28.9137,10.37928 44.77916,12.60341 7.56205,1.03793 15.86547,2.66896 22.98269,5.78274 6.07929,2.66896 12.89996,6.96895 12.89996,14.38272 0,18.53442 -19.57235,28.9137 -35.88265,28.9137 -18.68269,0 -32.17576,-10.52756 -37.06884,-28.76543 -1.33448,-5.18964 -10.23101,-6.96894 -14.97582,-6.96894 -4.59653,0 -14.97581,2.22413 -14.97581,8.15514 0,0.88966 0.29655,1.77931 0.5931,2.66896 8.74825,29.35853 37.3654,41.36884 66.57565,41.36884 z"
       id="path2990" />
    <path
       d="m 735.19226,532.66567 c 4.44826,0 13.78961,-1.77931 15.71719,-6.22757 l 60.05153,-138.48922 c 0.14828,-0.5931 0.29655,-1.03792 0.29655,-1.48275 0,-3.55861 -5.93101,-5.48619 -11.86203,-5.48619 -5.04136,0 -10.08273,1.33448 -11.41721,4.44826 L 739.04742,498.1175 689.96826,387.05923 c -1.7793,-4.15171 -8.30342,-6.07929 -14.97581,-6.07929 -8.00687,0 -16.16202,2.66896 -16.16202,7.56205 0,0.5931 0.14827,1.1862 0.44483,1.92758 l 60.05153,135.96853 c 2.22413,5.04136 11.12065,6.22757 15.86547,6.22757 z"
       id="path2992" />
    <path
       d="m 841.20918,532.66567 c 4.74481,0 14.97582,-2.07586 14.97582,-8.30343 V 389.13509 c 0,-6.22757 -10.23101,-8.30342 -14.97582,-8.30342 -4.89309,0 -15.12409,2.07585 -15.12409,8.30342 v 135.22715 c 0,6.22757 10.231,8.30343 15.12409,8.30343 z"
       id="path3011" />
    <path
       d="m 841.20918,367.78343 c 7.8586,0 15.12409,-6.07929 15.12409,-15.12409 0,-9.19307 -7.26549,-15.27236 -15.12409,-15.27236 -8.00687,0 -15.27236,6.07929 -15.27236,15.27236 0,9.0448 7.26549,15.12409 15.27236,15.12409 z"
       id="path2994" />
    <path
       d="M 1024.6258,524.21397 V 388.39371 c 0,-6.22757 -10.231,-8.30342 -15.1241,-8.30342 -4.7448,0 -14.97577,2.07585 -14.97577,8.30342 v 77.25148 c 0,23.42751 -14.67927,49.82053 -41.07229,49.82053 -27.43094,0 -41.07228,-26.24474 -41.07228,-50.26536 v -76.80665 c 0,-6.22757 -10.231,-8.30342 -14.97581,-8.30342 -4.89309,0 -15.12409,2.07585 -15.12409,8.30342 v 76.80665 c 0,40.92401 30.24818,66.72393 71.17218,66.72393 14.53099,0 30.24818,-4.44826 41.07229,-17.34822 v 8.00687 c 0,29.80335 -12.89996,49.22743 -44.48262,49.22743 -14.23444,0 -30.24818,-4.29999 -38.69988,-16.60685 -2.66895,-3.85516 -8.74824,-5.18963 -14.08616,-5.18963 -4.89309,0 -14.97581,2.07585 -14.97581,8.15514 0,0.88965 0.29655,1.92758 1.03793,2.96551 13.93788,20.16545 43.29641,27.28267 67.02047,27.28267 41.07228,0 74.28594,-19.42407 74.28594,-64.20324 z"
       id="path2996" />
    <path
       d="m 1072.2222,493.52096 c -9.4896,0 -17.9413,7.11722 -17.9413,17.94132 0,10.52756 8.4517,17.64478 17.9413,17.64478 9.1931,0 17.6448,-7.11722 17.6448,-17.64478 0,-10.8241 -8.4517,-17.94132 -17.6448,-17.94132 z"
       id="path2998" />
    <path
       d="m 1179.277,532.66567 c 26.9862,0 65.686,-13.49307 65.686,-46.26193 0,-14.23443 -6.5241,-23.87233 -18.2378,-31.2861 -13.6414,-8.59998 -28.0241,-10.23101 -43.7413,-12.60341 -7.7103,-1.18621 -15.7172,-2.96551 -22.9827,-5.78274 -5.931,-2.37241 -14.2344,-6.82067 -14.2344,-14.23444 0,-17.19995 18.831,-25.20682 33.6585,-25.20682 15.5689,0 27.8758,8.74825 31.5827,23.87234 1.3345,5.33792 10.231,7.11722 14.9758,7.11722 4.5965,-0.14828 14.9758,-2.22413 14.9758,-8.00687 0,-0.88965 -0.1483,-1.63103 -0.4448,-2.52068 -7.1172,-26.24475 -35.2896,-36.92057 -60.9412,-36.92057 -25.0585,0 -63.7584,11.56548 -63.7584,41.96193 0,13.64134 7.4137,24.31716 18.5344,31.73093 13.6413,9.0448 28.9137,10.37928 44.7792,12.60341 7.562,1.03793 15.8654,2.66896 22.9827,5.78274 6.0792,2.66896 12.8999,6.96895 12.8999,14.38272 0,18.53442 -19.5723,28.9137 -35.8826,28.9137 -18.6827,0 -32.1758,-10.52756 -37.0689,-28.76543 -1.3345,-5.18964 -10.231,-6.96894 -14.9758,-6.96894 -4.5965,0 -14.9758,2.22413 -14.9758,8.15514 0,0.88966 0.2965,1.77931 0.5931,2.66896 8.7482,29.35853 37.3654,41.36884 66.5756,41.36884 z"
       id="path3000" />
    <path
       d="m 1278.7699,367.78343 c 7.8585,0 15.124,-6.07929 15.124,-15.12409 0,-9.19307 -7.2655,-15.27236 -15.124,-15.27236 -8.0069,0 -15.2724,6.07929 -15.2724,15.27236 0,9.0448 7.2655,15.12409 15.2724,15.12409 z m 0,164.88224 c 4.7448,0 14.9758,-2.07586 14.9758,-8.30343 V 389.13509 c 0,-6.22757 -10.231,-8.30342 -14.9758,-8.30342 -4.8931,0 -15.1241,2.07585 -15.1241,8.30342 v 135.22715 c 0,6.22757 10.231,8.30343 15.1241,8.30343 z"
       id="path3002" />
    <path
       d="m 1390.1247,532.66567 c 6.2275,0 12.6034,-0.59311 18.8309,-1.63103 4.1517,-0.74138 12.4552,-3.26206 12.4552,-8.00688 0,-6.52411 -10.6759,-8.59997 -15.5689,-8.59997 -5.1897,0 -10.0828,1.63103 -15.569,1.63103 -15.1241,0 -19.8689,-11.12065 -19.8689,-24.31716 v -94.30315 h 24.9103 c 4.7448,0 15.1241,-2.07586 15.1241,-8.30342 0,-6.22757 -10.5276,-8.30342 -15.1241,-8.30342 h -24.9103 v -48.18951 c 0,-6.22756 -10.3792,-8.30342 -15.1241,-8.30342 -4.7448,0 -15.124,2.07586 -15.124,8.30342 v 48.18951 h -16.6069 c -4.7448,0 -14.9758,2.07585 -14.9758,8.30342 0,6.22756 10.231,8.30342 14.9758,8.30342 h 16.6069 v 94.30315 c 0,29.35852 22.6861,40.77573 49.9688,40.92401 z"
       id="path3004" />
    <path
       d="m 1504.8898,532.66567 c 18.9793,0 38.9964,-4.74482 54.8619,-15.12409 8.6,-5.63447 16.9034,-13.64134 20.9068,-23.13097 1.1862,-2.81723 2.5207,-6.96894 2.5207,-10.08272 0,-6.07929 -10.5275,-8.15515 -15.2724,-8.15515 -4.5965,0 -14.0861,2.07586 -14.6792,7.71032 -1.0379,9.78618 -8.6,17.94132 -16.6069,23.13096 -9.3413,5.93102 -20.462,9.19308 -31.5826,9.19308 -31.5827,0 -49.8205,-28.3206 -50.1171,-57.53085 h 116.0996 c 6.3759,0 14.9758,-1.77931 14.9758,-9.48963 0,-45.37227 -36.3274,-68.35495 -79.7721,-68.35495 -45.6688,0 -81.2549,29.65507 -81.2549,76.80665 0,46.55847 34.993,75.02735 79.9204,75.02735 z M 1555.6,442.21768 h -98.8997 c 5.3379,-24.46544 23.131,-44.92745 49.524,-44.92745 28.024,0 46.5585,18.0896 49.3757,44.92745 z"
       id="path3006" />
  </g>
</svg>
