<?xml version="1.0" encoding="UTF-8" standalone="no"?>
<svg
   viewBox="0 0 246.928 246.40094"
   version="1.1"
   id="svg1193"
   sodipodi:docname="ss-logo-work.svg"
   inkscape:export-filename="s.png"
   inkscape:export-xdpi="96"
   inkscape:export-ydpi="96"
   inkscape:version="1.2.2 (1:1.2.2+202305151915+b0a8486541)"
   width="246.92799"
   height="246.40094"
   xmlns:inkscape="http://www.inkscape.org/namespaces/inkscape"
   xmlns:sodipodi="http://sodipodi.sourceforge.net/DTD/sodipodi-0.dtd"
   xmlns="http://www.w3.org/2000/svg"
   xmlns:svg="http://www.w3.org/2000/svg">
  <defs
     id="defs1197" />
  <sodipodi:namedview
     id="namedview1195"
     pagecolor="#ffffff"
     bordercolor="#666666"
     borderopacity="1.0"
     inkscape:showpageshadow="2"
     inkscape:pageopacity="0.0"
     inkscape:pagecheckerboard="0"
     inkscape:deskcolor="#d1d1d1"
     showgrid="false"
     inkscape:zoom="0.25"
     inkscape:cx="1056"
     inkscape:cy="672"
     inkscape:window-width="1366"
     inkscape:window-height="703"
     inkscape:window-x="0"
     inkscape:window-y="0"
     inkscape:window-maximized="1"
     inkscape:current-layer="svg1193" />
  <g
     id="g1"
     transform="translate(-212.05143,-319.979)">
    <path
       id="path1851"
       style="display:inline;fill:#0b0b0b;fill-opacity:1;stroke:#0b0b0b;stroke-width:10.7;stroke-linecap:round;stroke-linejoin:round;stroke-dasharray:none;stroke-opacity:1"
       d="m 419.4534,475.85559 c -17.89899,46.35156 -69.84899,69.57198 -116.32291,51.9931 l -10.086,25.3765 c 60.79248,23.10269 129.04006,-6.64124 152.46246,-67.31124 z"
       sodipodi:nodetypes="ccccc"
       inkscape:label="black-t"
       inkscape:export-filename="../../logo/ss-logo-red-black.png"
       inkscape:export-xdpi="96"
       inkscape:export-ydpi="96" />
    <path
       id="path1851-8"
       style="display:inline;fill:#0b0b0b;fill-opacity:1;stroke:#0b0b0b;stroke-width:10.7;stroke-linecap:round;stroke-linejoin:round;stroke-dasharray:none;stroke-opacity:1"
       d="m 250.6581,411.03043 c 17.899,-46.35154 69.64009,-70.70062 116.11398,-53.12175 l 10.08279,-24.85377 c -60.79246,-23.10271 -128.82791,7.24716 -152.25033,67.91716 z"
       sodipodi:nodetypes="ccccc"
       inkscape:label="black-b" />
    <path
       style="display:inline;mix-blend-mode:normal;fill:#d8160f;fill-opacity:1;fill-rule:nonzero;stroke:#d8160f;stroke-width:10.7;stroke-dasharray:none;stroke-opacity:1"
       d="m 303.10286,527.17165 c -46.35155,-17.899 -70.02363,-69.66731 -52.44476,-116.14122 l -25.53078,-10.05558 c -23.1027,60.79247 7.24716,128.82794 67.91717,152.25034 z"
       id="path2100"
       sodipodi:nodetypes="ccccc"
       inkscape:label="red-b" />
    <path
       style="mix-blend-mode:normal;fill:#d8160f;fill-opacity:1;fill-rule:nonzero;stroke:#d8160f;stroke-width:10.7;stroke-dasharray:none;stroke-opacity:1"
       d="m 367.92801,358.37633 a 90.40731,90.40731 0 0 1 51.99311,116.3229 l 25.98243,9.87388 A 118.19474,118.19474 0 0 0 377.98637,332.32278 Z"
       id="path2098"
       inkscape:label="red-t" />
    <path
       style="display:inline;mix-blend-mode:normal;fill:#d8160f;fill-opacity:1;fill-rule:nonzero;stroke:#d8160f;stroke-width:10.7;stroke-dasharray:none;stroke-opacity:1"
       d="m 331.71861,456.53501 c -37.16029,-18.49387 -53.38342,-52.8501 -40.25232,-86.86274 13.13108,-34.01264 52.50748,-50.48068 86.52012,-37.34959 0.38864,0.15005 -0.38442,-0.15591 0,0 l -10.05842,26.05369 c -0.38159,-0.16158 0.38922,0.15026 0,0 -19.62781,-7.5776 -42.83832,1.72343 -50.41593,21.35124 -7.57761,19.62782 4.42334,39.97453 24.053,50.68217 43.79438,24.47638 47.48759,58.48201 37.99994,85.46598 -13.13109,34.01264 -52.50747,50.48069 -86.52011,37.34959 -0.38865,-0.15003 0.38407,0.15685 0,0 l 10.05843,-26.05369 c 0.38157,0.16157 -0.38921,-0.15026 0,0 19.6278,7.5776 42.8383,-1.72344 50.41591,-21.35125 3.57404,-22.13899 2.1911,-34.08309 -21.80061,-49.28541 z"
       id="path1191-3-4-8"
       sodipodi:nodetypes="sssccssccsccscss"
       inkscape:label="red-c" />
    <path
       id="path1191-3-4"
       style="mix-blend-mode:normal;fill:#0b0b0b;fill-opacity:1;fill-rule:nonzero;stroke:#0b0b0b;stroke-width:10.7;stroke-dasharray:none;stroke-opacity:1"
       d="m 348.81678,447.23983 c -18.49387,37.1603 -52.85011,53.38341 -86.86274,40.25232 -34.01263,-13.13109 -50.48058,-52.50744 -37.3495,-86.52008 0.15005,-0.38864 -0.15684,0.38407 -6e-5,-3e-5 l 26.05369,10.05842 c -0.16158,0.38159 0.15019,-0.38923 -7e-5,-3e-5 -7.57761,19.62781 1.72349,42.83835 21.3513,50.41595 19.62781,7.57761 39.97453,-4.42324 50.68215,-24.053 24.47638,-43.79438 58.48203,-47.48759 85.466,-37.99993 34.01263,13.13108 50.48065,52.50746 37.34957,86.5201 -0.15004,0.38864 0.15684,-0.38407 0,0 l -26.0537,-10.05842 c 0.16157,-0.38159 -0.15027,0.38966 -2e-5,4.6e-4 7.57761,-19.6278 -1.7234,-42.83877 -21.35121,-50.41637 -22.13899,-3.57405 -34.08308,-2.19111 -49.28541,21.80061 z"
       sodipodi:nodetypes="cssccssccsccscc"
       inkscape:export-filename="ss-logo-black.svg"
       inkscape:export-xdpi="96"
       inkscape:export-ydpi="96"
       inkscape:label="black-c" />
  </g>
</svg>
